<?xml version="1.0" standalone="no"?>
<!DOCTYPE svg PUBLIC "-//W3C//DTD SVG 20010904//EN"
 "http://www.w3.org/TR/2001/REC-SVG-20010904/DTD/svg10.dtd">
<svg version="1.0" xmlns="http://www.w3.org/2000/svg"
 width="499.000000pt" height="499.000000pt" viewBox="0 0 499.000000 499.000000"
 preserveAspectRatio="xMidYMid meet">
<metadata>
Created by potrace 1.14, written by Peter Selinger 2001-2017
</metadata>
<g transform="translate(0.000000,499.000000) scale(0.100000,-0.100000)"
fill="#000000" stroke="none">
<path d="M0 4515 l0 -475 475 0 475 0 0 475 0 475 -475 0 -475 0 0 -475z"/>
<path d="M4040 4515 l0 -475 475 0 475 0 0 475 0 475 -475 0 -475 0 0 -475z"/>
<path d="M0 3505 l0 -475 475 0 475 0 0 475 0 475 -475 0 -475 0 0 -475z"/>
<path d="M2020 3505 l0 -475 475 0 475 0 0 475 0 475 -475 0 -475 0 0 -475z"/>
<path d="M4040 3505 l0 -475 475 0 475 0 0 475 0 475 -475 0 -475 0 0 -475z"/>
<path d="M0 2495 l0 -475 475 0 475 0 0 475 0 475 -475 0 -475 0 0 -475z"/>
<path d="M2020 2495 l0 -475 475 0 475 0 0 475 0 475 -475 0 -475 0 0 -475z"/>
<path d="M4040 2495 l0 -475 475 0 475 0 0 475 0 475 -475 0 -475 0 0 -475z"/>
<path d="M0 1485 l0 -475 475 0 475 0 0 475 0 475 -475 0 -475 0 0 -475z"/>
<path d="M2020 1485 l0 -475 475 0 475 0 0 475 0 475 -475 0 -475 0 0 -475z"/>
<path d="M4040 1485 l0 -475 475 0 475 0 0 475 0 475 -475 0 -475 0 0 -475z"/>
<path d="M1010 475 l0 -475 475 0 475 0 0 475 0 475 -475 0 -475 0 0 -475z"/>
<path d="M3030 475 l0 -475 475 0 475 0 0 475 0 475 -475 0 -475 0 0 -475z"/>
</g>
</svg>
